  http://www.scenespeeds.com/

  |  | |  | |  | 
  |/\| |/\| |/\|,
  ~  ~ ~  ~ ~  ~~
                  
   _, __,  _, ___,
  / ` |_) /_\ ` / 
  \ , | \ | |  /  
   ~  ~ ~ ~ ~ ~~~ 
                  
 , _    ___  _, __,
 \ |     |  / \ |_)
  \| ~~  |  \ / | \
   )     ~   ~  ~ ~
  ~'               
  __, __, _, _ ___ 
  |_) |_  |\ |  |  
  | \ |   | \|  | ,
  ~ ~ ~~~ ~  ~  ~ ~
                   
     _,  _, _, _
    / ` / \ |\/|
    \ , \ / |  |

 
http://www.imdb.com/title/tt1571222/

Video - TNZ (720p Files) - Many Thanks Guys
Audio - EVOLUTiON - Many Thanks Guys (holla)
Info:
Video
ID : 0
Format : MPEG-4 Visual
Format profile : Advanced Simple@L5
Format settings, BVOP : 2
Format settings, QPel : No
Format settings, GMC : No warppoints
Format settings, Matrix : Default (H.263)
Codec ID : XVID
Codec ID/Hint : XviD
Duration : 1h 33mn
Bit rate : 1 498 Kbps
Width : 704 pixels
Height : 368 pixels
Display aspect ratio : 1.913
Frame rate : 25.000 fps
Color space : YUV
Chroma subsampling : 4:2:0
Bit depth : 8 bits
Scan type : Progressive
Compression mode : Lossy
Bits/(Pixel*Frame) : 0.231
Stream size : 1 000 MiB (92%)
Writing library : XviD 64
Audio
ID : 1
Format : MPEG Audio
Format version : Version 1
Format profile : Layer 3
Mode : Joint stereo
Mode extension : MS Stereo
Codec ID : 55
Codec ID/Hint : MP3
Duration : 1h 33mn
Bit rate mode : Variable
Bit rate : 120 Kbps
Channel(s) : 2 channels
Sampling rate : 48.0 KHz
Compression mode : Lossy
Stream size : 80.0 MiB (7%)
Alignment : Aligned on interleaves
Interleave, duration : 24 ms (0.60 video frame)


A look at how the intense relationship between
Carl Jung and Sigmund Freud gives birth to
psychoanalysis. 